<svg version="1.1" viewBox="0 0 2046.7 288.61" xmlns="http://www.w3.org/2000/svg">
 <g>
  <g fill="#2c9a3f">
   <path transform="matrix(.13333 0 0 -.13333 0 288.61)" d="m5769.9 1318.8v-958.07h-350.02v958.07h-353.63v304.92h1057.3v-304.92h-353.63"/>
   <path transform="matrix(.13333 0 0 -.13333 0 288.61)" d="m6511.2 1087.9c-73.99 0-115.47-50.5-126.3-144.31h270.66c-16.29 95.608-48.8 144.31-144.36 144.31zm429.38-346.45h-555.68c10.83-104.64 72.13-151.49 160.56-151.49 82.98 0 151.58 18.051 245.38 66.75l124.45-207.5c-117.22-68.519-238.15-108.25-386.03-108.25-285.12 0-442.07 202.14-442.07 492.62 0 326.5 184 494.29 432.99 494.29 259.83 0 422.24-171.39 422.24-523.18 0-27.129 0-46.942-1.84-63.239"/>
   <path transform="matrix(.13333 0 0 -.13333 0 288.61)" d="m7544.8 340.95c-277.79 0-443.81 176.77-443.81 496.14 0 290.52 147.96 490.77 451.04 490.77 178.62 0 281.5-82.97 364.46-216.49l-223.72-169.6c-45.09 83.02-75.83 122.69-146.11 122.69-83.06 0-124.54-83.011-124.54-232.74 0-149.82 45.1-227.32 133.52-227.32 61.3 0 104.64 34.262 164.18 122.68l205.66-160.56c-110.01-162.41-212.88-225.57-380.68-225.57"/>
   <path transform="matrix(.13333 0 0 -.13333 0 288.61)" d="m8652.4 360.77v537.71c0 122.7-41.48 155.15-108.24 155.15-68.61 0-110.1-32.45-110.1-151.53v-541.33h-324.74v1185.4l324.74 129.91v-431.19c59.54 45.09 126.3 82.97 238.16 82.97 207.52 0 306.77-138.9 306.77-387.89v-579.2h-326.59"/>
  </g>
  <g fill="#100f0d">
   <path transform="matrix(.13333 0 0 -.13333 0 288.61)" d="m9756.4 340.95c-375.3 0-575.59 277.88-575.59 651.34 0 405.94 238.17 651.33 577.36 651.33 310.37 0 433.07-133.52 519.67-371.69l-317.54-124.49c-45.18 117.27-88.43 191.26-203.9 191.26-146.13 0-209.27-146.12-209.27-346.41 0-193.08 61.3-346.42 212.88-346.42 110.01 0 156.95 59.539 225.48 178.63l295.95-156.96c-84.8-166.02-225.6-326.59-525.04-326.59"/>
   <path transform="matrix(.13333 0 0 -.13333 0 288.61)" d="m11080 950.8c-41.5 45.097-88.4 79.359-151.5 79.359-79.5 0-128.2-37.871-128.2-153.34v-516.05h-324.7v947.27h324.7v-68.56c55.9 54.12 119.1 88.38 202.2 88.38 68.5 0 115.4-16.2 153.3-39.68l-75.8-337.38"/>
   <path transform="matrix(.13333 0 0 -.13333 0 288.61)" d="m11852 360.77v63.242c-57.7-45.09-126.3-83.063-236.3-83.063-207.5 0-306.7 138.9-306.7 387.98v579.11h326.5v-537.71c0-122.61 41.5-155.1 108.3-155.1s108.2 32.489 108.2 151.58v541.23h326.6v-947.27h-326.6"/>
   <path transform="matrix(.13333 0 0 -.13333 0 288.61)" d="m12956 360.77v537.71c0 122.7-41.5 155.15-108.2 155.15-68.6 0-110.1-32.45-110.1-151.53v-541.33h-324.8v947.27h324.8v-63.15c59.5 45.09 126.3 82.97 238.1 82.97 207.5 0 306.8-138.9 306.8-387.89v-579.2h-326.6"/>
   <path transform="matrix(.13333 0 0 -.13333 0 288.61)" d="m13916 340.95c-277.8 0-443.8 176.77-443.8 496.14 0 290.52 148 490.77 451.1 490.77 178.6 0 281.5-82.97 364.4-216.49l-223.7-169.6c-45.1 83.02-75.8 122.69-146.1 122.69-83.1 0-124.6-83.011-124.6-232.74 0-149.82 45.1-227.32 133.6-227.32 61.3 0 104.6 34.262 164.1 122.68l205.7-160.56c-110-162.41-212.9-225.57-380.7-225.57"/>
   <path transform="matrix(.13333 0 0 -.13333 0 288.61)" d="m15023 360.77v537.71c0 122.7-41.5 155.15-108.2 155.15-68.7 0-110.1-32.45-110.1-151.53v-541.33h-324.8v1185.4l324.8 129.91v-431.19c59.5 45.09 126.3 82.97 238.1 82.97 207.5 0 306.8-138.9 306.8-387.89v-579.2h-326.6"/>
  </g>
  <g fill="#2c9a3f">
   <path transform="matrix(.13333 0 0 -.13333 0 288.61)" d="m0 2164.6v-721.53h721.53v-1443.1h721.54v1443.1h721.52v721.53h-2164.6"/>
   <path transform="matrix(.13333 0 0 -.13333 0 288.61)" d="m2886.1 721.54v721.53h-721.54v-1443.1h2164.6v721.54h-1443.1"/>
   <path transform="matrix(.13333 0 0 -.13333 0 288.61)" d="m2886.1 2164.6v-721.53h1443.1v721.53h-1443.1"/>
  </g>
 </g>
</svg>
